<mxfile host="app.diagrams.net" modified="2024-04-25T10:19:10.060Z" agent="Mozilla/5.0 (Windows NT 10.0; Win64; x64) AppleWebKit/537.36 (KHTML, like Gecko) Chrome/124.0.0.0 Safari/537.36" etag="9XX_8hz74QD9z3mYa6dy" version="24.3.0" type="github">
  <diagram id="C5RBs43oDa-KdzZeNtuy" name="Page-1">
    <mxGraphModel dx="1147" dy="597" grid="1" gridSize="10" guides="1" tooltips="1" connect="1" arrows="1" fold="1" page="1" pageScale="1" pageWidth="827" pageHeight="1169" math="0" shadow="0">
      <root>
        <mxCell id="WIyWlLk6GJQsqaUBKTNV-0" />
        <mxCell id="WIyWlLk6GJQsqaUBKTNV-1" parent="WIyWlLk6GJQsqaUBKTNV-0" />
        <mxCell id="J5_poEPGG0RTB-6arFWy-14" value="Si" style="edgeStyle=orthogonalEdgeStyle;rounded=0;orthogonalLoop=1;jettySize=auto;html=1;" edge="1" parent="WIyWlLk6GJQsqaUBKTNV-1" source="J5_poEPGG0RTB-6arFWy-7" target="J5_poEPGG0RTB-6arFWy-13">
          <mxGeometry x="0.0624" y="-10" relative="1" as="geometry">
            <mxPoint as="offset" />
          </mxGeometry>
        </mxCell>
        <mxCell id="J5_poEPGG0RTB-6arFWy-37" value="" style="edgeStyle=orthogonalEdgeStyle;rounded=0;orthogonalLoop=1;jettySize=auto;html=1;" edge="1" parent="WIyWlLk6GJQsqaUBKTNV-1" source="J5_poEPGG0RTB-6arFWy-7" target="J5_poEPGG0RTB-6arFWy-36">
          <mxGeometry relative="1" as="geometry" />
        </mxCell>
        <mxCell id="J5_poEPGG0RTB-6arFWy-7" value="Sin parametros/-h" style="rhombus;whiteSpace=wrap;html=1;" vertex="1" parent="WIyWlLk6GJQsqaUBKTNV-1">
          <mxGeometry x="494" y="100" width="160" height="80" as="geometry" />
        </mxCell>
        <mxCell id="J5_poEPGG0RTB-6arFWy-12" value="" style="edgeStyle=orthogonalEdgeStyle;rounded=0;orthogonalLoop=1;jettySize=auto;html=1;" edge="1" parent="WIyWlLk6GJQsqaUBKTNV-1" source="J5_poEPGG0RTB-6arFWy-11" target="J5_poEPGG0RTB-6arFWy-7">
          <mxGeometry relative="1" as="geometry" />
        </mxCell>
        <mxCell id="J5_poEPGG0RTB-6arFWy-11" value="Ejecución inicial del programa" style="rounded=0;whiteSpace=wrap;html=1;" vertex="1" parent="WIyWlLk6GJQsqaUBKTNV-1">
          <mxGeometry x="514" width="120" height="60" as="geometry" />
        </mxCell>
        <mxCell id="J5_poEPGG0RTB-6arFWy-13" value="Mostrar ayuda" style="whiteSpace=wrap;html=1;" vertex="1" parent="WIyWlLk6GJQsqaUBKTNV-1">
          <mxGeometry x="300" y="110" width="120" height="60" as="geometry" />
        </mxCell>
        <mxCell id="J5_poEPGG0RTB-6arFWy-22" value="" style="edgeStyle=orthogonalEdgeStyle;rounded=0;orthogonalLoop=1;jettySize=auto;html=1;" edge="1" parent="WIyWlLk6GJQsqaUBKTNV-1" source="J5_poEPGG0RTB-6arFWy-15" target="J5_poEPGG0RTB-6arFWy-21">
          <mxGeometry relative="1" as="geometry" />
        </mxCell>
        <mxCell id="J5_poEPGG0RTB-6arFWy-24" value="" style="edgeStyle=orthogonalEdgeStyle;rounded=0;orthogonalLoop=1;jettySize=auto;html=1;" edge="1" parent="WIyWlLk6GJQsqaUBKTNV-1" source="J5_poEPGG0RTB-6arFWy-15" target="J5_poEPGG0RTB-6arFWy-21">
          <mxGeometry relative="1" as="geometry" />
        </mxCell>
        <mxCell id="J5_poEPGG0RTB-6arFWy-25" value="" style="edgeStyle=orthogonalEdgeStyle;rounded=0;orthogonalLoop=1;jettySize=auto;html=1;" edge="1" parent="WIyWlLk6GJQsqaUBKTNV-1" source="J5_poEPGG0RTB-6arFWy-15" target="J5_poEPGG0RTB-6arFWy-21">
          <mxGeometry relative="1" as="geometry" />
        </mxCell>
        <mxCell id="J5_poEPGG0RTB-6arFWy-27" value="" style="edgeStyle=orthogonalEdgeStyle;rounded=0;orthogonalLoop=1;jettySize=auto;html=1;" edge="1" parent="WIyWlLk6GJQsqaUBKTNV-1" source="J5_poEPGG0RTB-6arFWy-15" target="J5_poEPGG0RTB-6arFWy-26">
          <mxGeometry relative="1" as="geometry" />
        </mxCell>
        <mxCell id="J5_poEPGG0RTB-6arFWy-15" value="Identificar tecnologías del servidor/web" style="whiteSpace=wrap;html=1;" vertex="1" parent="WIyWlLk6GJQsqaUBKTNV-1">
          <mxGeometry x="507" y="357.5" width="134" height="60" as="geometry" />
        </mxCell>
        <mxCell id="J5_poEPGG0RTB-6arFWy-21" value="Herramientas&lt;div&gt;&lt;hr&gt;&lt;/div&gt;&lt;div style=&quot;text-align: left;&quot;&gt;- nmap&lt;/div&gt;&lt;div style=&quot;text-align: left;&quot;&gt;- whatweb -a [1,3] &amp;lt;url&amp;gt;&lt;/div&gt;&lt;div style=&quot;text-align: left;&quot;&gt;- webtech -u &amp;lt;url&amp;gt;&lt;/div&gt;&lt;div&gt;&lt;div style=&quot;text-align: left;&quot;&gt;&lt;span style=&quot;background-color: initial;&quot;&gt;- webanalyze -host &amp;lt;url&amp;gt; -crawl 2&lt;/span&gt;&lt;/div&gt;&lt;/div&gt;&lt;div style=&quot;text-align: left;&quot;&gt;&lt;span style=&quot;background-color: initial;&quot;&gt;- wafw00f&lt;/span&gt;&lt;/div&gt;&lt;div style=&quot;text-align: left;&quot;&gt;&lt;span style=&quot;background-color: initial;&quot;&gt;- WhatWaf&lt;/span&gt;&lt;/div&gt;" style="shape=process;whiteSpace=wrap;html=1;backgroundOutline=1;" vertex="1" parent="WIyWlLk6GJQsqaUBKTNV-1">
          <mxGeometry x="714" y="323.13" width="266" height="128.75" as="geometry" />
        </mxCell>
        <mxCell id="J5_poEPGG0RTB-6arFWy-33" value="" style="edgeStyle=orthogonalEdgeStyle;rounded=0;orthogonalLoop=1;jettySize=auto;html=1;" edge="1" parent="WIyWlLk6GJQsqaUBKTNV-1" source="J5_poEPGG0RTB-6arFWy-26" target="J5_poEPGG0RTB-6arFWy-32">
          <mxGeometry relative="1" as="geometry" />
        </mxCell>
        <mxCell id="J5_poEPGG0RTB-6arFWy-52" value="" style="edgeStyle=orthogonalEdgeStyle;rounded=0;orthogonalLoop=1;jettySize=auto;html=1;" edge="1" parent="WIyWlLk6GJQsqaUBKTNV-1" source="J5_poEPGG0RTB-6arFWy-26" target="J5_poEPGG0RTB-6arFWy-30">
          <mxGeometry relative="1" as="geometry" />
        </mxCell>
        <mxCell id="J5_poEPGG0RTB-6arFWy-26" value="Escáneres generales" style="whiteSpace=wrap;html=1;" vertex="1" parent="WIyWlLk6GJQsqaUBKTNV-1">
          <mxGeometry x="507" y="513.43" width="133" height="60" as="geometry" />
        </mxCell>
        <mxCell id="J5_poEPGG0RTB-6arFWy-30" value="Herramientas&lt;div&gt;&lt;hr&gt;&lt;/div&gt;&lt;div style=&quot;text-align: left; line-height: 120%;&quot;&gt;&lt;font style=&quot;font-size: 12px;&quot;&gt;- Nuclei&lt;/font&gt;&lt;/div&gt;&lt;div style=&quot;text-align: left; line-height: 120%;&quot;&gt;&lt;font style=&quot;font-size: 12px;&quot;&gt;- Nikto&lt;/font&gt;&lt;/div&gt;&lt;div style=&quot;text-align: left; line-height: 120%;&quot;&gt;&lt;font style=&quot;font-size: 12px;&quot;&gt;- whatweb -a 4&amp;nbsp;&lt;span style=&quot;background-color: initial;&quot;&gt;&amp;lt;URL&amp;gt;&lt;/span&gt;&lt;/font&gt;&lt;/div&gt;&lt;div style=&quot;text-align: left; line-height: 120%;&quot;&gt;&lt;font style=&quot;font-size: 12px;&quot;&gt;- wapiti -u&amp;nbsp;&lt;span style=&quot;background-color: initial;&quot;&gt;&amp;lt;URL&amp;gt;&lt;/span&gt;&lt;/font&gt;&lt;/div&gt;&lt;div style=&quot;text-align: left; line-height: 120%;&quot;&gt;&lt;font style=&quot;font-size: 12px;&quot;&gt;- w3af&amp;nbsp;&lt;/font&gt;&lt;/div&gt;&lt;div style=&quot;line-height: 120%;&quot;&gt;&lt;div style=&quot;text-align: left; line-height: 120%;&quot;&gt;&lt;span style=&quot;background-color: initial;&quot;&gt;&lt;font style=&quot;font-size: 12px;&quot;&gt;- puff (https://github.com/ignis-sec/puff)&lt;/font&gt;&lt;/span&gt;&lt;/div&gt;&lt;div style=&quot;text-align: left; line-height: 120%;&quot;&gt;&lt;span style=&quot;background-color: initial;&quot;&gt;&lt;font style=&quot;font-size: 12px;&quot;&gt;- xray (https://github.com/chaitin/xray)&lt;/font&gt;&lt;/span&gt;&lt;/div&gt;&lt;/div&gt;" style="shape=process;whiteSpace=wrap;html=1;backgroundOutline=1;" vertex="1" parent="WIyWlLk6GJQsqaUBKTNV-1">
          <mxGeometry x="714" y="470" width="286" height="146.87" as="geometry" />
        </mxCell>
        <mxCell id="J5_poEPGG0RTB-6arFWy-35" value="" style="edgeStyle=orthogonalEdgeStyle;rounded=0;orthogonalLoop=1;jettySize=auto;html=1;" edge="1" parent="WIyWlLk6GJQsqaUBKTNV-1" source="J5_poEPGG0RTB-6arFWy-32" target="J5_poEPGG0RTB-6arFWy-34">
          <mxGeometry relative="1" as="geometry" />
        </mxCell>
        <mxCell id="J5_poEPGG0RTB-6arFWy-42" value="" style="edgeStyle=orthogonalEdgeStyle;rounded=0;orthogonalLoop=1;jettySize=auto;html=1;" edge="1" parent="WIyWlLk6GJQsqaUBKTNV-1" source="J5_poEPGG0RTB-6arFWy-32" target="J5_poEPGG0RTB-6arFWy-41">
          <mxGeometry relative="1" as="geometry" />
        </mxCell>
        <mxCell id="J5_poEPGG0RTB-6arFWy-32" value="Escáneres especializados" style="whiteSpace=wrap;html=1;" vertex="1" parent="WIyWlLk6GJQsqaUBKTNV-1">
          <mxGeometry x="507" y="662.5" width="133" height="60" as="geometry" />
        </mxCell>
        <mxCell id="J5_poEPGG0RTB-6arFWy-34" value="Herramientas&lt;div&gt;&lt;hr&gt;&lt;/div&gt;&lt;span style=&quot;background-color: initial;&quot;&gt;&lt;div style=&quot;text-align: left;&quot;&gt;&lt;span style=&quot;background-color: initial;&quot;&gt;- cmsmap [-f W] -F -f &amp;lt;URL&amp;gt;&lt;/span&gt;&lt;/div&gt;&lt;/span&gt;&lt;span style=&quot;background-color: initial;&quot;&gt;&lt;div style=&quot;text-align: left;&quot;&gt;&lt;span style=&quot;background-color: initial;&quot;&gt;- wpscan --force update -e --url&amp;nbsp;&lt;/span&gt;&lt;span style=&quot;background-color: initial;&quot;&gt;&amp;lt;URL&amp;gt;&lt;/span&gt;&lt;/div&gt;&lt;/span&gt;&lt;span style=&quot;background-color: initial;&quot;&gt;&lt;div style=&quot;text-align: left;&quot;&gt;&lt;span style=&quot;background-color: initial;&quot;&gt;- joomscan --ec -u&amp;nbsp;&lt;/span&gt;&lt;span style=&quot;background-color: initial;&quot;&gt;&amp;lt;URL&amp;gt;&lt;/span&gt;&lt;/div&gt;&lt;/span&gt;&lt;div style=&quot;text-align: left;&quot;&gt;&lt;span style=&quot;background-color: initial;&quot;&gt;- joomlavs.rb&lt;br&gt;&amp;nbsp;(&lt;/span&gt;&lt;span style=&quot;background-color: initial;&quot;&gt;https://github.com/rastating/joomlavs)&lt;/span&gt;&lt;/div&gt;" style="shape=process;whiteSpace=wrap;html=1;backgroundOutline=1;" vertex="1" parent="WIyWlLk6GJQsqaUBKTNV-1">
          <mxGeometry x="714" y="630" width="286" height="125" as="geometry" />
        </mxCell>
        <mxCell id="J5_poEPGG0RTB-6arFWy-38" value="" style="edgeStyle=orthogonalEdgeStyle;rounded=0;orthogonalLoop=1;jettySize=auto;html=1;" edge="1" parent="WIyWlLk6GJQsqaUBKTNV-1" source="J5_poEPGG0RTB-6arFWy-36" target="J5_poEPGG0RTB-6arFWy-15">
          <mxGeometry relative="1" as="geometry" />
        </mxCell>
        <mxCell id="J5_poEPGG0RTB-6arFWy-39" value="No" style="edgeLabel;html=1;align=center;verticalAlign=middle;resizable=0;points=[];" vertex="1" connectable="0" parent="J5_poEPGG0RTB-6arFWy-38">
          <mxGeometry x="-0.1085" y="-1" relative="1" as="geometry">
            <mxPoint x="17" as="offset" />
          </mxGeometry>
        </mxCell>
        <mxCell id="J5_poEPGG0RTB-6arFWy-44" value="" style="edgeStyle=orthogonalEdgeStyle;rounded=0;orthogonalLoop=1;jettySize=auto;html=1;" edge="1" parent="WIyWlLk6GJQsqaUBKTNV-1" source="J5_poEPGG0RTB-6arFWy-36" target="J5_poEPGG0RTB-6arFWy-43">
          <mxGeometry relative="1" as="geometry" />
        </mxCell>
        <mxCell id="J5_poEPGG0RTB-6arFWy-46" value="Si" style="edgeLabel;html=1;align=center;verticalAlign=middle;resizable=0;points=[];" vertex="1" connectable="0" parent="J5_poEPGG0RTB-6arFWy-44">
          <mxGeometry x="0.0531" y="1" relative="1" as="geometry">
            <mxPoint y="-11" as="offset" />
          </mxGeometry>
        </mxCell>
        <mxCell id="J5_poEPGG0RTB-6arFWy-36" value="Búsqueda de &lt;br&gt;subdominios" style="rhombus;whiteSpace=wrap;html=1;" vertex="1" parent="WIyWlLk6GJQsqaUBKTNV-1">
          <mxGeometry x="494" y="230" width="160" height="80" as="geometry" />
        </mxCell>
        <mxCell id="J5_poEPGG0RTB-6arFWy-40" value="No" style="edgeLabel;html=1;align=center;verticalAlign=middle;resizable=0;points=[];" vertex="1" connectable="0" parent="WIyWlLk6GJQsqaUBKTNV-1">
          <mxGeometry x="589.9999999999998" y="209.99931034482756" as="geometry" />
        </mxCell>
        <mxCell id="J5_poEPGG0RTB-6arFWy-56" value="" style="edgeStyle=orthogonalEdgeStyle;rounded=0;orthogonalLoop=1;jettySize=auto;html=1;" edge="1" parent="WIyWlLk6GJQsqaUBKTNV-1" source="J5_poEPGG0RTB-6arFWy-41" target="J5_poEPGG0RTB-6arFWy-55">
          <mxGeometry relative="1" as="geometry" />
        </mxCell>
        <mxCell id="J5_poEPGG0RTB-6arFWy-58" value="" style="edgeStyle=orthogonalEdgeStyle;rounded=0;orthogonalLoop=1;jettySize=auto;html=1;" edge="1" parent="WIyWlLk6GJQsqaUBKTNV-1" source="J5_poEPGG0RTB-6arFWy-41" target="J5_poEPGG0RTB-6arFWy-57">
          <mxGeometry relative="1" as="geometry" />
        </mxCell>
        <mxCell id="J5_poEPGG0RTB-6arFWy-41" value="Descargar ficheros interesantes" style="whiteSpace=wrap;html=1;" vertex="1" parent="WIyWlLk6GJQsqaUBKTNV-1">
          <mxGeometry x="507" y="800" width="133" height="60" as="geometry" />
        </mxCell>
        <mxCell id="J5_poEPGG0RTB-6arFWy-48" value="" style="edgeStyle=orthogonalEdgeStyle;rounded=0;orthogonalLoop=1;jettySize=auto;html=1;" edge="1" parent="WIyWlLk6GJQsqaUBKTNV-1" source="J5_poEPGG0RTB-6arFWy-43" target="J5_poEPGG0RTB-6arFWy-47">
          <mxGeometry relative="1" as="geometry" />
        </mxCell>
        <mxCell id="J5_poEPGG0RTB-6arFWy-49" style="edgeStyle=orthogonalEdgeStyle;rounded=0;orthogonalLoop=1;jettySize=auto;html=1;entryX=0;entryY=0.5;entryDx=0;entryDy=0;" edge="1" parent="WIyWlLk6GJQsqaUBKTNV-1" source="J5_poEPGG0RTB-6arFWy-43" target="J5_poEPGG0RTB-6arFWy-15">
          <mxGeometry relative="1" as="geometry" />
        </mxCell>
        <mxCell id="J5_poEPGG0RTB-6arFWy-43" value="Busqueda de subdominios" style="whiteSpace=wrap;html=1;" vertex="1" parent="WIyWlLk6GJQsqaUBKTNV-1">
          <mxGeometry x="310" y="357.5" width="120" height="60" as="geometry" />
        </mxCell>
        <mxCell id="J5_poEPGG0RTB-6arFWy-47" value="Herramientas&lt;div&gt;&lt;hr&gt;&lt;/div&gt;&lt;div style=&quot;text-align: left;&quot;&gt;-&amp;nbsp;&lt;/div&gt;" style="shape=process;whiteSpace=wrap;html=1;backgroundOutline=1;" vertex="1" parent="WIyWlLk6GJQsqaUBKTNV-1">
          <mxGeometry y="340" width="256" height="95" as="geometry" />
        </mxCell>
        <mxCell id="J5_poEPGG0RTB-6arFWy-55" value="Webs&lt;hr&gt;&lt;div style=&quot;text-align: left;&quot;&gt;&lt;span style=&quot;background-color: initial;&quot;&gt;- /robots.txt&lt;/span&gt;&lt;/div&gt;&lt;div style=&quot;text-align: left;&quot;&gt;- /sitemap.xml&lt;/div&gt;&lt;div style=&quot;text-align: left;&quot;&gt;- /crossdomain.xml&lt;/div&gt;&lt;div style=&quot;text-align: left;&quot;&gt;- /&lt;span style=&quot;background-color: initial;&quot;&gt;clientaccesspolicy.xml&lt;/span&gt;&lt;/div&gt;&lt;div style=&quot;text-align: left;&quot;&gt;- /.well-known/&lt;/div&gt;&lt;div style=&quot;text-align: left;&quot;&gt;- Comprobar comentarios&lt;/div&gt;" style="shape=process;whiteSpace=wrap;html=1;backgroundOutline=1;" vertex="1" parent="WIyWlLk6GJQsqaUBKTNV-1">
          <mxGeometry x="713.5" y="770" width="286" height="120" as="geometry" />
        </mxCell>
        <mxCell id="J5_poEPGG0RTB-6arFWy-60" value="" style="edgeStyle=orthogonalEdgeStyle;rounded=0;orthogonalLoop=1;jettySize=auto;html=1;" edge="1" parent="WIyWlLk6GJQsqaUBKTNV-1" source="J5_poEPGG0RTB-6arFWy-57" target="J5_poEPGG0RTB-6arFWy-59">
          <mxGeometry relative="1" as="geometry" />
        </mxCell>
        <mxCell id="J5_poEPGG0RTB-6arFWy-63" value="" style="edgeStyle=orthogonalEdgeStyle;rounded=0;orthogonalLoop=1;jettySize=auto;html=1;" edge="1" parent="WIyWlLk6GJQsqaUBKTNV-1" source="J5_poEPGG0RTB-6arFWy-57" target="J5_poEPGG0RTB-6arFWy-62">
          <mxGeometry relative="1" as="geometry" />
        </mxCell>
        <mxCell id="J5_poEPGG0RTB-6arFWy-57" value="Comprobar Webdav" style="whiteSpace=wrap;html=1;" vertex="1" parent="WIyWlLk6GJQsqaUBKTNV-1">
          <mxGeometry x="514" y="920" width="120" height="60" as="geometry" />
        </mxCell>
        <mxCell id="J5_poEPGG0RTB-6arFWy-59" value="Herramientas&lt;hr&gt;- davtest [-auth user:pass] -move -sndbd auto -url &amp;lt;URL&amp;gt;" style="shape=process;whiteSpace=wrap;html=1;backgroundOutline=1;" vertex="1" parent="WIyWlLk6GJQsqaUBKTNV-1">
          <mxGeometry x="713.5" y="910" width="286.5" height="80" as="geometry" />
        </mxCell>
        <mxCell id="J5_poEPGG0RTB-6arFWy-61" value="Herramientas&lt;hr&gt;&lt;div style=&quot;text-align: left;&quot;&gt;&lt;ul&gt;&lt;li&gt;&lt;span style=&quot;background-color: initial;&quot;&gt;Comprobar links rotos en una web&lt;/span&gt;&lt;/li&gt;&lt;ul&gt;&lt;li&gt;&lt;span style=&quot;background-color: initial;&quot;&gt;https://github.com/stevenvachon/broken-link-checker&lt;br&gt;&lt;/span&gt;&lt;/li&gt;&lt;/ul&gt;&lt;li&gt;&lt;span style=&quot;background-color: initial;&quot;&gt;Descubrir parámetros ocultos&lt;/span&gt;&lt;/li&gt;&lt;ul&gt;&lt;li&gt;https://github.com/s0md3v/Arjun&lt;br&gt;&lt;/li&gt;&lt;li&gt;https://github.com/PortSwigger/param-miner/blob/master/resources/params&lt;br&gt;&lt;/li&gt;&lt;li&gt;https://wordlists.assetnote.io/&amp;nbsp;parameters_top_1m&lt;br&gt;&lt;/li&gt;&lt;li&gt;https://gist.github.com/nullenc0de/9cb36260207924f8e1787279a05eb773&lt;br&gt;&lt;/li&gt;&lt;/ul&gt;&lt;li&gt;Check JS vulnerable libraries&lt;/li&gt;&lt;ul&gt;&lt;li&gt;https://github.com/callforpapers-source/jshole&lt;br&gt;&lt;/li&gt;&lt;/ul&gt;&lt;li&gt;&lt;br&gt;&lt;/li&gt;&lt;/ul&gt;&lt;/div&gt;" style="shape=process;whiteSpace=wrap;html=1;backgroundOutline=1;" vertex="1" parent="WIyWlLk6GJQsqaUBKTNV-1">
          <mxGeometry x="714" y="1380" width="626" height="200" as="geometry" />
        </mxCell>
        <mxCell id="J5_poEPGG0RTB-6arFWy-65" value="" style="edgeStyle=orthogonalEdgeStyle;rounded=0;orthogonalLoop=1;jettySize=auto;html=1;" edge="1" parent="WIyWlLk6GJQsqaUBKTNV-1" source="J5_poEPGG0RTB-6arFWy-62" target="J5_poEPGG0RTB-6arFWy-64">
          <mxGeometry relative="1" as="geometry" />
        </mxCell>
        <mxCell id="J5_poEPGG0RTB-6arFWy-67" value="" style="edgeStyle=orthogonalEdgeStyle;rounded=0;orthogonalLoop=1;jettySize=auto;html=1;" edge="1" parent="WIyWlLk6GJQsqaUBKTNV-1" source="J5_poEPGG0RTB-6arFWy-62" target="J5_poEPGG0RTB-6arFWy-66">
          <mxGeometry relative="1" as="geometry" />
        </mxCell>
        <mxCell id="J5_poEPGG0RTB-6arFWy-62" value="Comprobar SSL/TLS" style="whiteSpace=wrap;html=1;" vertex="1" parent="WIyWlLk6GJQsqaUBKTNV-1">
          <mxGeometry x="514" y="1020" width="120" height="60" as="geometry" />
        </mxCell>
        <mxCell id="J5_poEPGG0RTB-6arFWy-64" value="Herramientas&lt;hr&gt;&lt;div style=&quot;text-align: left;&quot;&gt;&lt;span style=&quot;background-color: initial;&quot;&gt;- testssl.sh&lt;br&gt;&amp;nbsp;(https://github.com/drwetter/testssl.sh)&lt;/span&gt;&lt;/div&gt;" style="shape=process;whiteSpace=wrap;html=1;backgroundOutline=1;" vertex="1" parent="WIyWlLk6GJQsqaUBKTNV-1">
          <mxGeometry x="713.5" y="1010" width="286.5" height="80" as="geometry" />
        </mxCell>
        <mxCell id="J5_poEPGG0RTB-6arFWy-69" value="" style="edgeStyle=orthogonalEdgeStyle;rounded=0;orthogonalLoop=1;jettySize=auto;html=1;" edge="1" parent="WIyWlLk6GJQsqaUBKTNV-1" source="J5_poEPGG0RTB-6arFWy-66" target="J5_poEPGG0RTB-6arFWy-68">
          <mxGeometry relative="1" as="geometry" />
        </mxCell>
        <mxCell id="J5_poEPGG0RTB-6arFWy-75" value="" style="edgeStyle=orthogonalEdgeStyle;rounded=0;orthogonalLoop=1;jettySize=auto;html=1;" edge="1" parent="WIyWlLk6GJQsqaUBKTNV-1" source="J5_poEPGG0RTB-6arFWy-66" target="J5_poEPGG0RTB-6arFWy-74">
          <mxGeometry relative="1" as="geometry" />
        </mxCell>
        <mxCell id="J5_poEPGG0RTB-6arFWy-66" value="Spidering/fuzzing" style="whiteSpace=wrap;html=1;" vertex="1" parent="WIyWlLk6GJQsqaUBKTNV-1">
          <mxGeometry x="514" y="1165" width="120" height="60" as="geometry" />
        </mxCell>
        <mxCell id="J5_poEPGG0RTB-6arFWy-71" value="" style="edgeStyle=orthogonalEdgeStyle;rounded=0;orthogonalLoop=1;jettySize=auto;html=1;" edge="1" parent="WIyWlLk6GJQsqaUBKTNV-1" source="J5_poEPGG0RTB-6arFWy-68" target="J5_poEPGG0RTB-6arFWy-70">
          <mxGeometry relative="1" as="geometry" />
        </mxCell>
        <mxCell id="J5_poEPGG0RTB-6arFWy-68" value="Herramientas&lt;hr&gt;&lt;div style=&quot;text-align: left;&quot;&gt;&lt;span style=&quot;background-color: initial;&quot;&gt;- gospider&lt;/span&gt;&lt;/div&gt;&lt;div style=&quot;text-align: left;&quot;&gt;- dirhunt&lt;/div&gt;&lt;div style=&quot;text-align: left;&quot;&gt;- gau&lt;/div&gt;&lt;div style=&quot;text-align: left;&quot;&gt;- ParamSpider&lt;/div&gt;&lt;div style=&quot;text-align: left;&quot;&gt;- goLinkFinder&lt;/div&gt;&lt;div style=&quot;text-align: left;&quot;&gt;- JSFScan&lt;/div&gt;&lt;div style=&quot;text-align: left;&quot;&gt;- Katana&lt;/div&gt;&lt;div style=&quot;text-align: left;&quot;&gt;- ffuf&lt;/div&gt;" style="shape=process;whiteSpace=wrap;html=1;backgroundOutline=1;" vertex="1" parent="WIyWlLk6GJQsqaUBKTNV-1">
          <mxGeometry x="714" y="1110" width="286.5" height="170" as="geometry" />
        </mxCell>
        <mxCell id="J5_poEPGG0RTB-6arFWy-70" value="Diccionarios&lt;hr&gt;&lt;div style=&quot;text-align: left;&quot;&gt;- https://github.com/carlospolop/Auto_Wordlists/blob/main/wordlists/bf_directories.txt&lt;/div&gt;&lt;div style=&quot;text-align: left;&quot;&gt;- Dirsearch included dictionary&lt;/div&gt;&lt;div style=&quot;text-align: left;&quot;&gt;- http://gist.github.com/jhaddix/b80ea67d85c13206125806f0828f4d10&lt;/div&gt;&lt;div style=&quot;text-align: left;&quot;&gt;- Assetnote wordlists&lt;/div&gt;&lt;div style=&quot;text-align: left;&quot;&gt;- https://github.com/danielmiessler/SecLists/tree/master/Discovery/Web-- Content&lt;/div&gt;&lt;div style=&quot;text-align: left;&quot;&gt;- raft-large-directories-lowercase.txt&lt;/div&gt;&lt;div style=&quot;text-align: left;&quot;&gt;- directory-list-2.3-medium.txt&lt;/div&gt;&lt;div style=&quot;text-align: left;&quot;&gt;- RobotsDisallowed/top10000.txt&lt;/div&gt;&lt;div style=&quot;text-align: left;&quot;&gt;- https://github.com/random-robbie/bruteforce-lists&lt;/div&gt;&lt;div style=&quot;text-align: left;&quot;&gt;- https://github.com/google/fuzzing/tree/master/dictionaries&lt;/div&gt;&lt;div style=&quot;text-align: left;&quot;&gt;- https://github.com/six2dez/OneListForAll&lt;/div&gt;&lt;div style=&quot;text-align: left;&quot;&gt;- https://github.com/random-robbie/bruteforce-lists&lt;/div&gt;&lt;div style=&quot;text-align: left;&quot;&gt;- https://github.com/ayoubfathi/leaky-paths&lt;/div&gt;&lt;div style=&quot;text-align: left;&quot;&gt;- /usr/share/wordlists/dirb/common.txt&lt;/div&gt;&lt;div style=&quot;text-align: left;&quot;&gt;- /usr/share/wordlists/dirb/big.txt&lt;/div&gt;&lt;div style=&quot;text-align: left;&quot;&gt;- /usr/share/wordlists/dirbuster/directory-list-2.3-medium.txt&lt;/div&gt;" style="shape=process;whiteSpace=wrap;html=1;backgroundOutline=1;align=center;" vertex="1" parent="WIyWlLk6GJQsqaUBKTNV-1">
          <mxGeometry x="1070" y="1055" width="600" height="280" as="geometry" />
        </mxCell>
        <mxCell id="J5_poEPGG0RTB-6arFWy-76" value="" style="edgeStyle=orthogonalEdgeStyle;rounded=0;orthogonalLoop=1;jettySize=auto;html=1;" edge="1" parent="WIyWlLk6GJQsqaUBKTNV-1" source="J5_poEPGG0RTB-6arFWy-74" target="J5_poEPGG0RTB-6arFWy-61">
          <mxGeometry relative="1" as="geometry" />
        </mxCell>
        <mxCell id="J5_poEPGG0RTB-6arFWy-74" value="Otros" style="whiteSpace=wrap;html=1;" vertex="1" parent="WIyWlLk6GJQsqaUBKTNV-1">
          <mxGeometry x="513.5" y="1450" width="120" height="60" as="geometry" />
        </mxCell>
      </root>
    </mxGraphModel>
  </diagram>
</mxfile>
